<?xml version="1.0" encoding="UTF-8"?>
<svg id="Layer_2" data-name="Layer 2" xmlns="http://www.w3.org/2000/svg" viewBox="0 0 1921 104.53">
  <defs>
    <style>
      .cls-1 {
        fill: #29abe2;
        stroke: #29abe2;
        stroke-miterlimit: 10;
      }
    </style>
  </defs>
  <g id="Layer_1-2" data-name="Layer 1">
    <path class="cls-1" d="M.5,34.07v69.97h1920V34.63c-80,76.8-160,0-160,0-80-76.8-160,0-160,0-80,76.8-160,0-160,0-80-76.8-160,0-160,0-80,76.8-160,0-160,0-80-76.8-160,0-160,0-80,76.8-160,0-160,0-80-76.8-160,0-160,0-80,76.8-160,0-160,0-80-76.8-160,0-160,0-80,76.8-160,0-160,0C80.5-42.17.5,34.63.5,34.63"/>
  </g>
</svg>